<svg width="35" height="35" viewBox="0 0 35 35" fill="none" xmlns="http://www.w3.org/2000/svg">
<path d="M17.5001 29.1666C20.5943 29.1666 23.5617 27.9375 25.7497 25.7495C27.9376 23.5616 29.1667 20.5942 29.1667 17.5C29.1667 14.4058 27.9376 11.4383 25.7497 9.25038C23.5617 7.06246 20.5943 5.83329 17.5001 5.83329C14.4059 5.83329 11.4384 7.06246 9.2505 9.25038C7.06258 11.4383 5.83341 14.4058 5.83341 17.5C5.83341 20.5942 7.06258 23.5616 9.2505 25.7495C11.4384 27.9375 14.4059 29.1666 17.5001 29.1666ZM17.5001 2.91663C19.4152 2.91663 21.3116 3.29384 23.0809 4.02672C24.8502 4.7596 26.4579 5.8338 27.8121 7.18799C29.1662 8.54217 30.2404 10.1498 30.9733 11.9192C31.7062 13.6885 32.0834 15.5848 32.0834 17.5C32.0834 21.3677 30.547 25.077 27.8121 27.8119C25.0771 30.5468 21.3678 32.0833 17.5001 32.0833C9.4355 32.0833 2.91675 25.5208 2.91675 17.5C2.91675 13.6322 4.4532 9.92289 7.18811 7.18799C9.92301 4.45308 13.6323 2.91663 17.5001 2.91663ZM18.2292 10.2083V17.8645L24.7917 21.7583L23.698 23.552L16.0417 18.9583V10.2083H18.2292Z" fill="black"/>
</svg>
